<?xml version='1.0' encoding='utf-8'?>
<svg xmlns="http://www.w3.org/2000/svg" enable-background="new 0 0 5356.929 5014.997" version="1.1" viewBox="0 0 5356.9 5015"> <path d="m290.14 2449.1c0-1263.9 1024.7-2288.6 2288.7-2288.6 1264.1 0 2288.8 1024.7 2288.8 2288.6 0 1264.1-1024.7 2288.8-2288.8 2288.8-1264 0-2288.7-1024.7-2288.7-2288.8z" fill="#A8DAE9"/> <path d="m4867.7 2449.1-2138.4-1523.5 467.87 1160.1-415.13-415.13-1399.1 2110.6 1100.2 954.31c31.825 1.3 63.706 2.417 95.832 2.417 1264.1 0 2288.8-1024.7 2288.8-2288.8z" fill="#92C4D6"/> <path d="m4035.5 2049.9c-30.163-18.321-64.172-29.587-100.8-29.587h-2403.6c-48.45 0-92.635 18.767-128.69 49.462l1218.8 932.78 4.479 1.378-4.479 2.706 106.81 81.754 108.35-85.838-4.288-2.729 4.288-1.257 1199.1-948.67z" fill="#F3705B"/> <path d="m1402.4 2073.8s1164.5-1126.9 1335.5-1126.9c171.07 0 1297.6 1107 1297.6 1107l-2633.1 19.904z" fill="#F3705B"/> <rect x="1902.1" y="1754.7" width="1693.8" height="1976.1" fill="#fff"/> <rect x="2021.8" y="1926" width="1454.3" height="88.405" fill="#FFD066"/> <rect x="2021.8" y="2331" width="1454.3" height="88.361" fill="#FFD066"/> <rect x="2021.8" y="2128.5" width="1454.3" height="88.392" fill="#FFD066"/> <rect x="2021.8" y="2533.4" width="1454.3" height="88.33" fill="#FFD066"/> <rect x="2021.8" y="2722.7" width="1454.3" height="88.405" fill="#FFD066"/> <rect x="2021.8" y="2925.2" width="1454.3" height="88.324" fill="#FFD066"/> <polygon points="2552.8 2954.2 2516.1 2926.1 2552.6 2954.1" fill="#66BBC9"/> <path d="m2552.8 2954.2-0.206-0.162-36.513-27.987-341.89-261.55-771.81-590.74c-52.401 44.762-86.959 115.38-86.959 195.62v1334.6c0 69.935 26.069 132.55 67.376 177.19l959.12-599.93 279.22-174.62-68.349-52.391z" fill="#F7BA1D"/> <path d="m4035.5 2053.9-896.78 709.58-189.62 150.07-96.624 76.366-16.093 12.608 339.78 216.43 897.27 571.41c46.706-44.951 77.001-111.28 77.001-186.4v-1334.6c-1e-3 -93.815-46.913-174.32-114.93-215.51z" fill="#F7BA1D"/> <path d="m3176.1 3219-339.79-216.43 16.093-12.608c-0.985 0.634-89.633 55.635-133.59 55.635-43.792 0-165.25-90.684-166.01-91.328l68.352 52.386-279.22 174.62-959.13 599.93c38.526 41.851 90.697 67.938 148.28 67.938h2403.5c53.16 0 101.08-22.629 138.74-58.735l-897.27-571.41z" fill="#E4A33A"/> </svg>